<?xml version="1.0" encoding="utf-8"?>
<!-- Generator: Adobe Illustrator 16.0.0, SVG Export Plug-In . SVG Version: 6.00 Build 0)  -->
<!DOCTYPE svg PUBLIC "-//W3C//DTD SVG 1.1//EN" "http://www.w3.org/Graphics/SVG/1.1/DTD/svg11.dtd">
<svg version="1.1" id="Layer_1" xmlns="http://www.w3.org/2000/svg" xmlns:xlink="http://www.w3.org/1999/xlink" x="0px" y="0px"
	 width="100px" height="100px" viewBox="0 0 100 100" enable-background="new 0 0 100 100" xml:space="preserve">
<g>
	<path fill-rule="evenodd" clip-rule="evenodd" fill="#AD3D3D" d="M10.062,82.32c-4.169,0.023-7.277-3.563-7.276-7.299
		c0.002-13.953-0.011-27.907,0.042-41.86c0.006-1.461,0.233-2.978,0.669-4.372c2.126-6.795,8.31-11.583,15.596-11.563
		c20.529,0.058,41.06,0.018,61.589,0.016c2.097,0,4.092,0.384,6.07,1.15c6.073,2.35,10.147,8.404,10.186,14.662
		C97.021,46.926,96.935,60.8,97,74.673c0.018,3.836-2.971,7.718-7.668,7.669c-13.15-0.138-26.303-0.049-39.455-0.048
		C36.605,82.295,23.333,82.249,10.062,82.32z M22.659,71.476c7.098,0.04,12.62-5.805,12.691-12.558
		c0.078-7.213-6.16-12.879-12.739-12.785c-6.656,0.096-12.67,5.689-12.496,12.67C9.981,65.846,15.805,71.438,22.659,71.476z
		 M60.791,68.457c0,0.359-0.002,0.721,0.021,1.081c0.073,1.223,0.653,1.851,1.71,1.865c1.047,0.015,1.84-0.738,1.933-1.865
		c0.032-0.397,0.014-0.801,0.014-1.202c0-12.582,0.001-25.162-0.002-37.744c0-1.568-0.536-2.273-1.761-2.351
		c-1.212-0.078-1.827,0.41-1.878,1.63c-0.06,1.401-0.026,2.804-0.026,4.207c-0.002,5.249,0,10.498,0,15.747
		c-0.004,0-0.008,0-0.012,0C60.789,56.036,60.789,62.247,60.791,68.457z M68.105,69.614c-0.002,0.987,0.371,1.635,1.385,1.755
		c0.979,0.117,1.752-0.169,1.951-1.276c0.091-0.508,0.203-1.016,0.232-1.528c0.037-0.679,0-1.36,0-2.041
		c0-11.826,0.006-23.649-0.016-35.474c0-0.661-0.031-1.45-0.38-1.947c-0.349-0.499-1.182-1.045-1.68-0.948
		c-0.563,0.111-1.172,0.839-1.427,1.44c-0.246,0.58-0.073,1.34-0.073,2.022c-0.001,6.092-0.001,12.185-0.001,18.278
		c0.006,0,0.01,0,0.015,0C68.112,56.468,68.119,63.041,68.105,69.614z M53.51,65.744c0.005,1.638,1.229,2.552,2.549,1.836
		c0.471-0.254,0.877-0.915,0.996-1.461c0.176-0.806,0.079-1.673,0.08-2.514c0.004-9.781,0.004-19.561,0.004-29.34
		c0-0.32,0.014-0.646-0.043-0.959c-0.169-0.934-1.102-1.714-1.956-1.573c-0.977,0.161-1.598,0.767-1.618,1.787
		c-0.037,1.963-0.015,3.928-0.015,5.891c-0.001,3.488-0.001,6.974-0.001,10.462C53.504,55.163,53.495,60.454,53.51,65.744z
		 M78.781,34.15c-0.004-0.611-0.102-1.337-0.443-1.796c-0.3-0.403-1.086-0.792-1.509-0.67c-0.556,0.16-1.104,0.751-1.396,1.296
		c-0.26,0.49-0.221,1.168-0.221,1.763c-0.018,9.974-0.02,19.948-0.022,29.921c0,0.4,0.003,0.804,0.046,1.2
		c0.15,1.368,0.666,1.869,1.858,1.836c1.248-0.034,1.687-0.475,1.692-1.946c0.024-5.328,0.01-10.655,0.01-15.982
		C78.8,44.564,78.812,39.357,78.781,34.15z M35.229,32.257c-0.008-0.241-0.573-0.66-0.883-0.663
		c-4.17-0.044-8.342-0.046-12.513,0.011c-0.292,0.004-0.814,0.546-0.826,0.853c-0.075,1.882-0.06,3.769,0.001,5.653
		c0.008,0.261,0.436,0.728,0.673,0.73c4.48,0.043,8.96,0.032,13.588,0.032C35.269,36.562,35.298,34.408,35.229,32.257z
		 M49.875,37.554c-0.001-1.295-0.738-2.217-1.774-2.258c-0.983-0.04-1.845,0.95-1.846,2.214c-0.008,8.209-0.002,16.418,0.008,24.627
		c0.001,1.174,0.917,2.229,1.852,2.194c0.943-0.036,1.755-1.006,1.758-2.148c0.008-4.124,0.003-8.25,0.003-12.375
		C49.877,45.725,49.881,41.639,49.875,37.554z M86.008,37.396c-0.002-1.205-0.573-1.935-1.553-2.054
		c-0.951-0.115-1.82,0.647-2.013,1.794c-0.054,0.313-0.034,0.64-0.034,0.96c-0.002,7.901-0.03,15.803,0.047,23.704
		c0.008,0.734,0.5,1.779,1.092,2.126c1.281,0.753,2.459-0.108,2.465-1.624c0.016-4.171,0.006-8.343,0.006-12.515
		c-0.003,0-0.006,0-0.007,0C86.011,45.657,86.016,41.526,86.008,37.396z M17.365,32.806c0.03-0.792-0.314-1.222-1.101-1.23
		c-1.759-0.018-3.521-0.05-5.276,0.029c-0.302,0.014-0.82,0.537-0.833,0.842c-0.076,1.875-0.023,3.757-0.042,5.636
		c-0.006,0.653,0.317,0.809,0.894,0.803c1.759-0.016,3.519-0.021,5.278,0.007c0.84,0.013,1.129-0.362,1.081-1.169
		c-0.048-0.797-0.011-1.599-0.011-2.399C17.358,34.485,17.333,33.645,17.365,32.806z"/>
	<path fill-rule="evenodd" clip-rule="evenodd" fill="#E55151" d="M22.633,51.301c-4.403-0.126-7.518,3.562-7.518,7.427
		c0,4.733,3.664,7.848,7.67,7.751c4.293-0.104,7.482-3.041,7.561-7.61C30.419,54.668,27.284,51.189,22.633,51.301z"/>
</g>
</svg>
