<?xml version="1.0" encoding="utf-8"?>
<!-- Generator: Adobe Illustrator 16.0.0, SVG Export Plug-In . SVG Version: 6.00 Build 0)  -->
<!DOCTYPE svg PUBLIC "-//W3C//DTD SVG 1.1//EN" "http://www.w3.org/Graphics/SVG/1.1/DTD/svg11.dtd">
<svg version="1.1" id="Layer_1" xmlns="http://www.w3.org/2000/svg" xmlns:xlink="http://www.w3.org/1999/xlink" x="0px" y="0px"
	 width="1000px" height="1000px" viewBox="0 0 1000 1000" enable-background="new 0 0 1000 1000" xml:space="preserve">
<g>
	<path fill="#AD3D3D" d="M292.971,334.277c-2.901,0-5.766-1.324-7.631-3.831c-3.131-4.21-2.257-10.161,1.953-13.292L650.329,47.127
		c4.211-3.131,10.16-2.256,13.293,1.953c3.131,4.21,2.257,10.161-1.953,13.292L298.633,332.399
		C296.93,333.666,294.941,334.277,292.971,334.277z"/>
	<path fill="#AD3D3D" d="M653.211,168h-297C245.754,168,156,257.543,156,368v13v229v268c0,55.229,44.982,100,100.211,100h497
		C808.439,978,853,933.229,853,878V610V381v-13C853,257.543,763.668,168,653.211,168z"/>
	<g>
		<g>
			<circle fill="#FFFFFF" cx="590.848" cy="443.814" r="116.994"/>
			<g>
				<path fill="#E55151" d="M592.397,371.192c-10.42,0-19.965,1.928-28.55,5.261l18.614,35.365l-8.437,4.451l-18.865-35.85
					c-23.428,12.869-37.303,37.609-36.679,63.915c0.987,40.934,28.996,71.336,72.575,72.09
					c40.039,0.689,73.207-29.201,72.146-73.552C664.413,400.887,629.253,371.192,592.397,371.192z"/>
			</g>
		</g>
		<g>
			<path fill="#FFF0FA" d="M418,387.712c0-10.696-9.888-18.712-20.586-18.712h-45.297C341.418,369,333,377.017,333,387.712V411h85
				V387.712z"/>
			<path fill="#E55151" d="M333,539.845C333,550.54,341.418,560,352.117,560h45.297c10.698,0,20.586-9.46,20.586-20.155V444h-85
				V539.845z"/>
		</g>
	</g>
	<g>
		<path fill="#FFFFFF" d="M523,875.127c0,9.871-8.002,17.873-17.873,17.873h-0.254c-9.871,0-17.873-8.002-17.873-17.873V614.873
			c0-9.871,8.002-17.873,17.873-17.873h0.254c9.871,0,17.873,8.002,17.873,17.873V875.127z"/>
		<path fill="#FFFFFF" d="M585,875.127c0,9.871-8.002,17.873-17.873,17.873h-0.254c-9.871,0-17.873-8.002-17.873-17.873V648.873
			c0-9.871,8.002-17.873,17.873-17.873h0.254c9.871,0,17.873,8.002,17.873,17.873V875.127z"/>
		<path fill="#FFFFFF" d="M648,875.127c0,9.871-8.002,17.873-17.873,17.873h-0.254c-9.871,0-17.873-8.002-17.873-17.873V664.873
			c0-9.871,8.002-17.873,17.873-17.873h0.254c9.871,0,17.873,8.002,17.873,17.873V875.127z"/>
		<path fill="#FFFFFF" d="M710,875.127c0,9.871-8.002,17.873-17.873,17.873h-0.254c-9.871,0-17.873-8.002-17.873-17.873V687.873
			c0-9.871,8.002-17.873,17.873-17.873h0.254c9.871,0,17.873,8.002,17.873,17.873V875.127z"/>
		<path fill="#FFFFFF" d="M460,875.127c0,9.871-8.002,17.873-17.873,17.873h-0.254c-9.871,0-17.873-8.002-17.873-17.873V648.873
			c0-9.871,8.002-17.873,17.873-17.873h0.254c9.871,0,17.873,8.002,17.873,17.873V875.127z"/>
		<path fill="#FFFFFF" d="M397,875.127c0,9.871-8.002,17.873-17.873,17.873h-0.254c-9.871,0-17.873-8.002-17.873-17.873V664.873
			c0-9.871,8.002-17.873,17.873-17.873h0.254c9.871,0,17.873,8.002,17.873,17.873V875.127z"/>
		<path fill="#FFFFFF" d="M335,875.127c0,9.871-7.791,17.873-17.662,17.873h-0.256c-9.869,0-18.082-8.002-18.082-17.873V687.873
			c0-9.871,8.213-17.873,18.082-17.873h0.256c9.871,0,17.662,8.002,17.662,17.873V875.127z"/>
	</g>
	<circle fill="#AD3D3D" cx="663.622" cy="49.08" r="32.673"/>
</g>
</svg>
