<?xml version="1.0" encoding="utf-8"?>
<!-- Generator: Adobe Illustrator 16.0.0, SVG Export Plug-In . SVG Version: 6.00 Build 0)  -->
<!DOCTYPE svg PUBLIC "-//W3C//DTD SVG 1.1//EN" "http://www.w3.org/Graphics/SVG/1.1/DTD/svg11.dtd">
<svg version="1.1" id="Layer_1" xmlns="http://www.w3.org/2000/svg" xmlns:xlink="http://www.w3.org/1999/xlink" x="0px" y="0px"
	 width="1000px" height="1000px" viewBox="0 0 1000 1000" enable-background="new 0 0 1000 1000" xml:space="preserve">
<g>
	<path fill="#AD3D3D" d="M242.971,364.277c-2.901,0-5.766-1.324-7.631-3.831c-3.131-4.21-2.257-10.161,1.953-13.292L600.329,77.127
		c4.211-3.131,10.16-2.256,13.293,1.953c3.131,4.21,2.257,10.161-1.953,13.292L248.633,362.399
		C246.93,363.666,244.941,364.277,242.971,364.277z"/>
	<path fill="#AD3D3D" d="M653.211,168h-297C245.754,168,156,257.543,156,368v13v229v268c0,55.229,44.982,100,100.211,100h497
		C808.439,978,853,933.229,853,878V610V381v-13C853,257.543,763.668,168,653.211,168z"/>
	<g>
		<g>
			<circle fill="#FFFFFF" cx="590.847" cy="443.815" r="116.994"/>
			<g>
				<path fill="#E55151" d="M532.896,399.807c-6.177,8.393-10.279,17.225-12.682,26.113l39.516,5.969l-1.413,9.431l-40.059-6.053
					c-3.52,26.496,8.186,52.337,29.744,67.424c33.555,23.466,74.641,18.925,101.074-15.73
					c24.288-31.841,19.869-76.271-16.481-101.699C599.495,359.4,554.739,370.121,532.896,399.807z"/>
			</g>
		</g>
		<g>
			<path fill="#FFF0FA" d="M418,387.712c0-10.696-9.888-18.712-20.586-18.712h-45.297C341.418,369,333,377.017,333,387.712V411h85
				V387.712z"/>
			<path fill="#E55151" d="M333,539.845C333,550.54,341.418,560,352.117,560h45.297c10.698,0,20.586-9.46,20.586-20.155V444h-85
				V539.845z"/>
		</g>
	</g>
	<g>
		<path fill="#FFFFFF" d="M523,875.127c0,9.871-8.002,17.873-17.873,17.873h-0.254c-9.871,0-17.873-8.002-17.873-17.873V704.873
			c0-9.871,8.002-17.873,17.873-17.873h0.254c9.871,0,17.873,8.002,17.873,17.873V875.127z"/>
		<path fill="#FFFFFF" d="M585,875.127c0,9.871-8.002,17.873-17.873,17.873h-0.254c-9.871,0-17.873-8.002-17.873-17.873V688.873
			c0-9.871,8.002-17.873,17.873-17.873h0.254c9.871,0,17.873,8.002,17.873,17.873V875.127z"/>
		<path fill="#FFFFFF" d="M648,875.127c0,9.871-8.002,17.873-17.873,17.873h-0.254c-9.871,0-17.873-8.002-17.873-17.873V664.873
			c0-9.871,8.002-17.873,17.873-17.873h0.254c9.871,0,17.873,8.002,17.873,17.873V875.127z"/>
		<path fill="#FFFFFF" d="M710,875.127c0,9.871-8.002,17.873-17.873,17.873h-0.254c-9.871,0-17.873-8.002-17.873-17.873V687.873
			c0-9.871,8.002-17.873,17.873-17.873h0.254c9.871,0,17.873,8.002,17.873,17.873V875.127z"/>
		<path fill="#FFFFFF" d="M460,875.127c0,9.871-8.002,17.873-17.873,17.873h-0.254c-9.871,0-17.873-8.002-17.873-17.873V768.873
			c0-9.871,8.002-17.873,17.873-17.873h0.254c9.871,0,17.873,8.002,17.873,17.873V875.127z"/>
		<path fill="#FFFFFF" d="M397,875.127c0,9.871-8.002,17.873-17.873,17.873h-0.254c-9.871,0-17.873-8.002-17.873-17.873V664.873
			c0-9.871,8.002-17.873,17.873-17.873h0.254c9.871,0,17.873,8.002,17.873,17.873V875.127z"/>
		<path fill="#FFFFFF" d="M335,875.127c0,9.871-7.791,17.873-17.662,17.873h-0.256c-9.869,0-18.082-8.002-18.082-17.873V687.873
			c0-9.871,8.213-17.873,18.082-17.873h0.256c9.871,0,17.662,8.002,17.662,17.873V875.127z"/>
	</g>
	<circle fill="#AD3D3D" cx="613.622" cy="79.08" r="32.673"/>
</g>
</svg>
