<?xml version="1.0" encoding="utf-8"?>
<!-- Generator: Adobe Illustrator 16.0.0, SVG Export Plug-In . SVG Version: 6.00 Build 0)  -->
<!DOCTYPE svg PUBLIC "-//W3C//DTD SVG 1.1//EN" "http://www.w3.org/Graphics/SVG/1.1/DTD/svg11.dtd">
<svg version="1.1" id="Layer_1" xmlns="http://www.w3.org/2000/svg" xmlns:xlink="http://www.w3.org/1999/xlink" x="0px" y="0px"
	 width="141.526px" height="43.816px" viewBox="0 0 141.526 43.816" enable-background="new 0 0 141.526 43.816"
	 xml:space="preserve">
<g>
	<path fill="#FFFFFF" d="M12.262,7.271c-0.294-0.647-0.176-1,0.588-1.059c4.882-0.529,9.294-3,13.294-3.176
		c3-0.118,5.588,0.824,7,4.882c1.235,3.529,0.235,6.941-1.765,10.059c-2.941,4.588-9.294,9-17,10.471
		c-1.353,0.234-2.647,0-3.647-0.588c-1.647,3.234-3.412,7.117-5.471,11.999c-0.235,0.589-0.529,0.589-0.941,0.177
		c-0.824-0.883-1.412-2.646-0.529-5.824c1.529-5.352,7.059-16.411,12.176-24.47C13.968,9.506,12.851,8.506,12.262,7.271z
		 M30.615,8.447c-1.235-3.235-7.117-0.176-11,0.941c0,1.588-0.588,3.647-2.235,6.47c-1.529,2.706-3.177,5.412-4.941,8.706
		C25.615,22.094,32.203,12.565,30.615,8.447z"/>
	<path fill="#FFFFFF" d="M56.317,17.271c0.706-0.529,1.294-0.765,1.765-0.176c1.059,1.235,2.471,4,0.765,5.941
		c-2.765,3.177-5.647,7.177-6.647,10.294c-1.059,3.177-0.412,5.647,1.471,5.706c2.353,0.059,5.353-3.765,7.235-8.176
		c0.235-0.53,0.647-0.53,0.882,0c0.294,0.646,0.412,2.117-0.294,3.822c-1.471,3.529-5,6-8.235,5.941
		c-4.471-0.117-6.294-4.117-4.765-8.882c1.235-4,4.941-8.471,7.47-11.294c-2.647,1.765-5.294,2.353-7.235,2.353
		c-3.647,8.353-9.529,17-15.941,17.706c-4.529,0.471-5.706-3.706-4.177-8.529c1.765-5.471,6.353-12.588,7.588-14.294
		c0.529-0.706,0.941-0.882,1.412-0.353c0.882,0.941,1.235,3.529-0.059,6.47c-1.118,2.589-3.529,5.941-5.059,9.647
		c-1.412,3.353-1.235,5.588,0.647,5.353c3.823-0.471,10-7.235,13.294-16.353c-4.53-1.706,1.235-9.706,3.706-9.765
		c1.882-0.059,1.118,3.647-0.294,7.353C51.965,19.8,54.082,18.8,56.317,17.271z M41.788,16.565
		c-0.706,0.882-2.412,0.706-3.294-0.882c-0.882-1.588-0.647-3.294,0.294-4.294c0.941-1,2.647-0.294,3.412,1.294
		C42.906,14.153,42.436,15.741,41.788,16.565z"/>
	<path fill="#FFFFFF" d="M81.43,16.977c0.529-0.765,1-0.882,1.412-0.353c0.883,1.059,1.354,3.588-0.059,6.529
		c-1.295,2.647-4.235,7.059-5.646,10.176c-1.471,3.294-1.53,5.823,0.47,5.706c2.412-0.117,5.647-4.117,7.706-8.176
		c0.294-0.53,0.705-0.589,0.941-0.06c0.234,0.529,0.234,2-0.529,3.647c-1.529,3.234-5.236,6.471-8.471,6.293
		c-3.177-0.176-4.824-2.059-4.824-4.822c-1.882,2.411-4.529,4.588-7.353,4.588c-5.47,0-6.588-7.471-1.706-14.588
		c4.765-6.941,9.412-9.588,12.353-9.588c2.529,0,3.705,1.941,3.588,4.235C80.077,19.153,80.783,17.918,81.43,16.977z M76.725,19.388
		c-1.883-0.176-6.177,3.647-9.412,8.882c-3.118,5.059-3.882,10.235-1.588,10.294c2.412,0.059,5.47-3.705,8.471-8.883
		C77.9,23.212,78.43,19.565,76.725,19.388z"/>
	<path fill="#FFFFFF" d="M100.839,39.035c2.411-0.117,5.588-4.059,7.647-8.117c0.293-0.529,0.705-0.529,0.94-0.059
		c0.235,0.529,0.294,2.059-0.471,3.646c-1.588,3.235-5.235,6.353-8.47,6.176c-3.177-0.176-4.766-1.94-4.766-4.705
		c-1.882,2.353-4.529,4.529-7.293,4.529c-5.471,0-6.529-7.471-1.707-14.529c4.647-6.824,9.354-9.471,12.295-9.471
		c2.411,0,3.588,1.824,3.529,4c3.176-6.059,7.646-14.059,9.764-17.059c0.589-0.823,1.118-0.765,1.412,0
		c0.824,1.941,0.646,4.471-1.823,8.882c-2.823,5.059-8.471,14.764-11.411,21C98.897,36.741,98.839,39.152,100.839,39.035z
		 M90.604,28.33c-3.176,5.059-3.823,10.176-1.529,10.234c2.354,0.059,5.529-3.412,8.294-8.765
		c3.411-6.529,4.294-10.235,2.589-10.294C98.133,19.447,93.839,23.153,90.604,28.33z"/>
	<path fill="#ED544F" d="M107.894,31.977c1.471-4.295,5.353-11.235,7.529-14.294c0.529-0.706,0.94-0.882,1.411-0.353
		c0.883,0.941,1.354,3.471-0.059,6.412c-1.234,2.589-3.705,6.588-4.941,9.529c-1.411,3.411-1.293,5.706,0.589,5.588
		c2.647-0.117,5.882-3.999,7.647-8.059c0.293-0.529,0.705-0.471,0.94,0c0.471,0.941,0.294,2.177-0.411,3.647
		c-1.766,3.646-5.471,6.117-8.766,6.117C107.364,40.564,106.246,36.8,107.894,31.977z M121.011,16.624
		c-0.765,0.824-2.411,0.647-3.294-0.882c-0.941-1.588-0.646-3.353,0.295-4.353c0.94-1,2.646-0.294,3.411,1.294
		C122.188,14.212,121.775,15.8,121.011,16.624z"/>
	<path fill="#ED544F" d="M138.127,27.8c-1.236,5-4.941,10.941-9.295,12.411c-2.117,0.707-5.059,0.471-7.411-2.588
		c-2.589-3.412-1.706-8.529,0.94-13.234c2.236-4,5.824-7.412,9.354-7.647c1.823-0.118,2.823,0.412,4,2
		c1.353,1.824,3.117,2.235,2.764,6.471c-0.059,0.47-0.059,0.882-0.117,1.353c0.354,0,0.706-0.117,1.177-0.117
		c0.411,0,0.411,0.294,0.177,0.588C139.303,27.506,138.715,27.741,138.127,27.8z M133.127,26.33c-1.236-0.941-2.647-3-2.707-5.177
		c-1.588,1.353-3.293,3.294-4.529,5.529c-2.471,4.471-3.353,9.883-1.822,11.177c1.646,1.353,5.234-0.706,8.117-6.117
		c0.882-1.647,1.588-3.294,2.059-4.706C133.832,26.859,133.479,26.623,133.127,26.33z M135.127,21.094
		c-0.295-1.882-1.471-1.529-1.766,0.176c-0.294,1.588,0.354,3.294,1.295,4.177C135.127,23.623,135.303,22.153,135.127,21.094z"/>
</g>
</svg>
